<mxfile host="Electron" modified="2023-04-26T11:06:17.036Z" agent="Mozilla/5.0 (X11; Linux x86_64) AppleWebKit/537.36 (KHTML, like Gecko) draw.io/21.2.1 Chrome/112.0.5615.87 Electron/24.1.2 Safari/537.36" etag="tDKUUIpxTDA9mzZK7LS7" version="21.2.1" type="device">
  <diagram name="Page-1" id="wU9LXb1d4POlgjkQyBST">
    <mxGraphModel dx="1964" dy="826" grid="1" gridSize="10" guides="1" tooltips="1" connect="1" arrows="1" fold="1" page="1" pageScale="1" pageWidth="850" pageHeight="1100" math="0" shadow="0">
      <root>
        <mxCell id="0" />
        <mxCell id="1" parent="0" />
        <mxCell id="wuviF0q1Gh6CfxU_NPEG-31" value="&lt;font color=&quot;#ff3333&quot;&gt;&lt;b style=&quot;border-color: var(--border-color); font-size: 13px;&quot;&gt;&lt;b style=&quot;border-color: var(--border-color); font-size: 11px;&quot;&gt;{&amp;nbsp;&lt;/b&gt;DevNonce&amp;nbsp;&lt;sub style=&quot;border-color: var(--border-color);&quot;&gt;k&amp;nbsp; &lt;/sub&gt;&lt;span style=&quot;border-color: var(--border-color);&quot;&gt;&amp;nbsp;AppNonce &lt;sub&gt;k&amp;nbsp;&lt;/sub&gt;&amp;nbsp;&lt;/span&gt;&lt;/b&gt;&lt;b style=&quot;border-color: var(--border-color); font-size: 11px;&quot;&gt;}&lt;/b&gt;&lt;/font&gt;" style="shape=partialRectangle;whiteSpace=wrap;html=1;left=0;right=0;fillColor=none;" vertex="1" parent="1">
          <mxGeometry x="600" y="120" width="185" height="60" as="geometry" />
        </mxCell>
        <mxCell id="wuviF0q1Gh6CfxU_NPEG-24" value="" style="shape=partialRectangle;whiteSpace=wrap;html=1;left=0;right=0;fillColor=none;fontSize=10;" vertex="1" parent="1">
          <mxGeometry x="-115" y="260" width="150" height="60" as="geometry" />
        </mxCell>
        <mxCell id="wuviF0q1Gh6CfxU_NPEG-1" value="Rogue Gateway" style="ellipse;whiteSpace=wrap;html=1;aspect=fixed;fillColor=#f8cecc;strokeColor=#b85450;" vertex="1" parent="1">
          <mxGeometry x="200" y="240" width="80" height="80" as="geometry" />
        </mxCell>
        <mxCell id="wuviF0q1Gh6CfxU_NPEG-2" value="Network Server" style="ellipse;whiteSpace=wrap;html=1;aspect=fixed;fillColor=#dae8fc;strokeColor=#6c8ebf;" vertex="1" parent="1">
          <mxGeometry x="530" y="235" width="90" height="90" as="geometry" />
        </mxCell>
        <mxCell id="wuviF0q1Gh6CfxU_NPEG-3" value="" style="endArrow=classic;html=1;fontColor=#FF3333;rounded=0;exitX=1;exitY=0.5;exitDx=0;exitDy=0;entryX=0;entryY=0.5;entryDx=0;entryDy=0;" edge="1" parent="1" source="wuviF0q1Gh6CfxU_NPEG-1" target="wuviF0q1Gh6CfxU_NPEG-2">
          <mxGeometry width="50" height="50" relative="1" as="geometry">
            <mxPoint x="400" y="450" as="sourcePoint" />
            <mxPoint x="450" y="400" as="targetPoint" />
          </mxGeometry>
        </mxCell>
        <mxCell id="wuviF0q1Gh6CfxU_NPEG-4" value="&lt;font color=&quot;#ff3333&quot; style=&quot;font-size: 13px;&quot;&gt;&lt;b&gt;join request&amp;nbsp; &lt;sub&gt;k&amp;nbsp;&lt;/sub&gt;&amp;nbsp;{ DevNonce&amp;nbsp;&lt;sub style=&quot;border-color: var(--border-color);&quot;&gt;k&amp;nbsp;&lt;/sub&gt;}&amp;nbsp;&lt;/b&gt;&lt;/font&gt;" style="text;html=1;align=center;verticalAlign=middle;resizable=0;points=[];autosize=1;strokeColor=none;fillColor=none;" vertex="1" parent="1">
          <mxGeometry x="285" y="250" width="210" height="30" as="geometry" />
        </mxCell>
        <mxCell id="wuviF0q1Gh6CfxU_NPEG-5" value="&lt;b&gt;DevNonce &lt;sub&gt;n&lt;br&gt;&lt;br&gt;&lt;/sub&gt;&lt;/b&gt;" style="shape=partialRectangle;whiteSpace=wrap;html=1;left=0;right=0;fillColor=none;" vertex="1" parent="1">
          <mxGeometry x="600" y="430" width="160" height="50" as="geometry" />
        </mxCell>
        <mxCell id="wuviF0q1Gh6CfxU_NPEG-7" value="" style="endArrow=classic;startArrow=classic;html=1;fontColor=#FF3333;rounded=0;exitX=0.5;exitY=0;exitDx=0;exitDy=0;entryX=1;entryY=1;entryDx=0;entryDy=0;" edge="1" parent="1" source="wuviF0q1Gh6CfxU_NPEG-5" target="wuviF0q1Gh6CfxU_NPEG-2">
          <mxGeometry width="50" height="50" relative="1" as="geometry">
            <mxPoint x="570" y="410" as="sourcePoint" />
            <mxPoint x="570" y="320" as="targetPoint" />
          </mxGeometry>
        </mxCell>
        <mxCell id="wuviF0q1Gh6CfxU_NPEG-8" value="Gateway&amp;nbsp;" style="ellipse;whiteSpace=wrap;html=1;aspect=fixed;fillColor=#d5e8d4;strokeColor=#82b366;" vertex="1" parent="1">
          <mxGeometry x="200" y="430" width="90" height="90" as="geometry" />
        </mxCell>
        <mxCell id="wuviF0q1Gh6CfxU_NPEG-10" value="End device&amp;nbsp;" style="ellipse;whiteSpace=wrap;html=1;aspect=fixed;fillColor=#fff2cc;strokeColor=#d6b656;" vertex="1" parent="1">
          <mxGeometry x="-85" y="430" width="90" height="90" as="geometry" />
        </mxCell>
        <mxCell id="wuviF0q1Gh6CfxU_NPEG-14" value="&lt;b&gt;&lt;font color=&quot;#ff3333&quot;&gt;Join request &lt;sub&gt;k&lt;/sub&gt;&lt;/font&gt;&lt;/b&gt;" style="shape=partialRectangle;whiteSpace=wrap;html=1;left=0;right=0;fillColor=none;" vertex="1" parent="1">
          <mxGeometry x="180" y="110" width="120" height="50" as="geometry" />
        </mxCell>
        <mxCell id="wuviF0q1Gh6CfxU_NPEG-15" value="" style="endArrow=classic;startArrow=classic;html=1;fontColor=#FF3333;rounded=0;exitX=0.5;exitY=0;exitDx=0;exitDy=0;entryX=0.5;entryY=1;entryDx=0;entryDy=0;" edge="1" parent="1" source="wuviF0q1Gh6CfxU_NPEG-1" target="wuviF0q1Gh6CfxU_NPEG-14">
          <mxGeometry width="50" height="50" relative="1" as="geometry">
            <mxPoint x="560" y="340" as="sourcePoint" />
            <mxPoint x="610" y="290" as="targetPoint" />
          </mxGeometry>
        </mxCell>
        <mxCell id="wuviF0q1Gh6CfxU_NPEG-17" value="&lt;b&gt;&lt;span style=&quot;border-color: var(--border-color); font-size: 11px;&quot;&gt;{&amp;nbsp;&lt;/span&gt;NwKSKey &lt;sub style=&quot;font-size: 11px;&quot;&gt;m&lt;/sub&gt;, AppKSKey &lt;sub style=&quot;font-size: 11px;&quot;&gt;m&lt;/sub&gt;&lt;span style=&quot;border-color: var(--border-color); font-size: 11px;&quot;&gt;}&amp;nbsp;&lt;/span&gt;&lt;/b&gt;" style="text;html=1;align=center;verticalAlign=middle;resizable=0;points=[];autosize=1;strokeColor=none;fillColor=none;fontSize=11;" vertex="1" parent="1">
          <mxGeometry x="-130" y="280" width="180" height="30" as="geometry" />
        </mxCell>
        <mxCell id="wuviF0q1Gh6CfxU_NPEG-18" value="&lt;b style=&quot;font-size: 11px;&quot;&gt;&lt;span style=&quot;border-color: var(--border-color);&quot;&gt;{&amp;nbsp;&lt;/span&gt;NwKSKey &lt;sub style=&quot;&quot;&gt;m&lt;/sub&gt;, AppKSKey &lt;sub style=&quot;&quot;&gt;m&lt;/sub&gt;&lt;span style=&quot;border-color: var(--border-color);&quot;&gt;}&amp;nbsp;&lt;/span&gt;&lt;/b&gt;" style="text;html=1;align=center;verticalAlign=middle;resizable=0;points=[];autosize=1;strokeColor=none;fillColor=none;fontSize=9;" vertex="1" parent="1">
          <mxGeometry x="590" y="450" width="180" height="30" as="geometry" />
        </mxCell>
        <mxCell id="wuviF0q1Gh6CfxU_NPEG-19" value="" style="endArrow=classic;startArrow=classic;html=1;fontColor=#FF3333;rounded=0;exitX=1;exitY=1;exitDx=0;exitDy=0;entryX=0;entryY=1;entryDx=0;entryDy=0;" edge="1" parent="1" source="wuviF0q1Gh6CfxU_NPEG-10" target="wuviF0q1Gh6CfxU_NPEG-8">
          <mxGeometry width="50" height="50" relative="1" as="geometry">
            <mxPoint x="400" y="530" as="sourcePoint" />
            <mxPoint x="450" y="480" as="targetPoint" />
          </mxGeometry>
        </mxCell>
        <mxCell id="wuviF0q1Gh6CfxU_NPEG-20" value="&lt;b&gt;1&lt;/b&gt;" style="text;html=1;align=center;verticalAlign=middle;resizable=0;points=[];autosize=1;strokeColor=none;fillColor=none;" vertex="1" parent="1">
          <mxGeometry x="80" y="510" width="30" height="30" as="geometry" />
        </mxCell>
        <mxCell id="wuviF0q1Gh6CfxU_NPEG-21" value="" style="endArrow=classic;startArrow=classic;html=1;fontColor=#FF3333;rounded=0;exitX=1;exitY=0.5;exitDx=0;exitDy=0;entryX=0.5;entryY=1;entryDx=0;entryDy=0;" edge="1" parent="1" source="wuviF0q1Gh6CfxU_NPEG-8" target="wuviF0q1Gh6CfxU_NPEG-2">
          <mxGeometry width="50" height="50" relative="1" as="geometry">
            <mxPoint x="400" y="530" as="sourcePoint" />
            <mxPoint x="450" y="480" as="targetPoint" />
          </mxGeometry>
        </mxCell>
        <mxCell id="wuviF0q1Gh6CfxU_NPEG-22" value="&lt;b&gt;1&lt;/b&gt;" style="text;html=1;align=center;verticalAlign=middle;resizable=0;points=[];autosize=1;strokeColor=none;fillColor=none;rotation=-25;" vertex="1" parent="1">
          <mxGeometry x="420" y="410" width="30" height="30" as="geometry" />
        </mxCell>
        <mxCell id="wuviF0q1Gh6CfxU_NPEG-25" value="" style="endArrow=classic;startArrow=classic;html=1;fontColor=#FF3333;rounded=0;exitX=0.5;exitY=0;exitDx=0;exitDy=0;entryX=0.5;entryY=1;entryDx=0;entryDy=0;" edge="1" parent="1" source="wuviF0q1Gh6CfxU_NPEG-10" target="wuviF0q1Gh6CfxU_NPEG-24">
          <mxGeometry width="50" height="50" relative="1" as="geometry">
            <mxPoint x="400" y="530" as="sourcePoint" />
            <mxPoint x="450" y="480" as="targetPoint" />
          </mxGeometry>
        </mxCell>
        <mxCell id="wuviF0q1Gh6CfxU_NPEG-27" value="&lt;b&gt;2&lt;/b&gt;" style="text;html=1;align=center;verticalAlign=middle;resizable=0;points=[];autosize=1;strokeColor=none;fillColor=none;" vertex="1" parent="1">
          <mxGeometry x="355" y="280" width="30" height="30" as="geometry" />
        </mxCell>
        <mxCell id="wuviF0q1Gh6CfxU_NPEG-29" value="&lt;b style=&quot;font-size: 12px;&quot;&gt;&lt;font style=&quot;font-size: 12px;&quot; color=&quot;#ff3333&quot;&gt;&lt;span style=&quot;border-color: var(--border-color);&quot;&gt;{&amp;nbsp;&lt;/span&gt;NwKSKey &lt;sub style=&quot;&quot;&gt;k&amp;nbsp;&lt;/sub&gt;, AppKSKey &lt;sub&gt;&lt;font style=&quot;font-size: 12px;&quot;&gt;k&lt;/font&gt;&lt;/sub&gt;&lt;span style=&quot;border-color: var(--border-color);&quot;&gt;}&amp;nbsp;&lt;/span&gt;&lt;/font&gt;&lt;/b&gt;" style="text;html=1;align=center;verticalAlign=middle;resizable=0;points=[];autosize=1;strokeColor=none;fillColor=none;fontSize=11;" vertex="1" parent="1">
          <mxGeometry x="597.5" y="150" width="190" height="30" as="geometry" />
        </mxCell>
        <mxCell id="wuviF0q1Gh6CfxU_NPEG-30" value="&lt;b&gt;1&lt;/b&gt;" style="text;html=1;align=center;verticalAlign=middle;resizable=0;points=[];autosize=1;strokeColor=none;fillColor=none;" vertex="1" parent="1">
          <mxGeometry x="600" y="360" width="30" height="30" as="geometry" />
        </mxCell>
        <mxCell id="wuviF0q1Gh6CfxU_NPEG-34" value="" style="endArrow=classic;startArrow=classic;html=1;fontColor=#FF3333;rounded=0;exitX=1;exitY=0;exitDx=0;exitDy=0;entryX=0.5;entryY=1;entryDx=0;entryDy=0;" edge="1" parent="1" source="wuviF0q1Gh6CfxU_NPEG-2" target="wuviF0q1Gh6CfxU_NPEG-31">
          <mxGeometry width="50" height="50" relative="1" as="geometry">
            <mxPoint x="400" y="390" as="sourcePoint" />
            <mxPoint x="730" y="220" as="targetPoint" />
          </mxGeometry>
        </mxCell>
        <mxCell id="wuviF0q1Gh6CfxU_NPEG-35" value="&lt;b&gt;2&lt;/b&gt;" style="text;html=1;align=center;verticalAlign=middle;resizable=0;points=[];autosize=1;strokeColor=none;fillColor=none;" vertex="1" parent="1">
          <mxGeometry x="630" y="190" width="30" height="30" as="geometry" />
        </mxCell>
        <mxCell id="wuviF0q1Gh6CfxU_NPEG-36" value="" style="endArrow=none;dashed=1;html=1;dashPattern=1 3;strokeWidth=2;rounded=0;entryX=0.668;entryY=1.067;entryDx=0;entryDy=0;entryPerimeter=0;exitX=0.75;exitY=0;exitDx=0;exitDy=0;" edge="1" parent="1" source="wuviF0q1Gh6CfxU_NPEG-5" target="wuviF0q1Gh6CfxU_NPEG-29">
          <mxGeometry width="50" height="50" relative="1" as="geometry">
            <mxPoint x="400" y="390" as="sourcePoint" />
            <mxPoint x="450" y="340" as="targetPoint" />
          </mxGeometry>
        </mxCell>
        <mxCell id="wuviF0q1Gh6CfxU_NPEG-38" value="&lt;b&gt;Old parameters&lt;/b&gt;" style="text;html=1;align=center;verticalAlign=middle;resizable=0;points=[];autosize=1;strokeColor=none;fillColor=none;" vertex="1" parent="1">
          <mxGeometry x="620" y="480" width="110" height="30" as="geometry" />
        </mxCell>
        <mxCell id="wuviF0q1Gh6CfxU_NPEG-39" value="&lt;b&gt;New parameters&lt;/b&gt;" style="text;html=1;align=center;verticalAlign=middle;resizable=0;points=[];autosize=1;strokeColor=none;fillColor=none;" vertex="1" parent="1">
          <mxGeometry x="632.5" y="90" width="120" height="30" as="geometry" />
        </mxCell>
        <mxCell id="wuviF0q1Gh6CfxU_NPEG-46" value="&lt;b&gt;&lt;font color=&quot;#ff3333&quot;&gt;Join accept &lt;sub&gt;k&amp;nbsp;&lt;/sub&gt;&amp;nbsp;?&lt;/font&gt;&lt;/b&gt;" style="text;html=1;align=center;verticalAlign=middle;resizable=0;points=[];autosize=1;strokeColor=none;fillColor=none;rotation=-25;" vertex="1" parent="1">
          <mxGeometry x="280" y="355" width="110" height="30" as="geometry" />
        </mxCell>
        <mxCell id="wuviF0q1Gh6CfxU_NPEG-49" value="&lt;b&gt;2&lt;/b&gt;" style="text;html=1;align=center;verticalAlign=middle;resizable=0;points=[];autosize=1;strokeColor=none;fillColor=none;rotation=-30;" vertex="1" parent="1">
          <mxGeometry x="385" y="325" width="30" height="30" as="geometry" />
        </mxCell>
        <mxCell id="wuviF0q1Gh6CfxU_NPEG-51" value="&lt;b&gt;2&lt;/b&gt;" style="text;html=1;align=center;verticalAlign=middle;resizable=0;points=[];autosize=1;strokeColor=none;fillColor=none;" vertex="1" parent="1">
          <mxGeometry x="150" y="410" width="30" height="30" as="geometry" />
        </mxCell>
        <mxCell id="wuviF0q1Gh6CfxU_NPEG-52" value="&lt;b&gt;1&lt;/b&gt;" style="text;html=1;align=center;verticalAlign=middle;resizable=0;points=[];autosize=1;strokeColor=none;fillColor=none;" vertex="1" parent="1">
          <mxGeometry x="-70" y="355" width="30" height="30" as="geometry" />
        </mxCell>
        <mxCell id="wuviF0q1Gh6CfxU_NPEG-53" value="&lt;b&gt;&lt;font color=&quot;#ff3333&quot;&gt;Join accept &lt;sub&gt;k&amp;nbsp;&lt;/sub&gt;&amp;nbsp;?&lt;/font&gt;&lt;/b&gt;" style="text;html=1;align=center;verticalAlign=middle;resizable=0;points=[];autosize=1;strokeColor=none;fillColor=none;rotation=0;" vertex="1" parent="1">
          <mxGeometry x="49.99620221312625" y="409.9986212012882" width="110" height="30" as="geometry" />
        </mxCell>
        <mxCell id="wuviF0q1Gh6CfxU_NPEG-54" value="&lt;b&gt;2&lt;/b&gt;" style="text;html=1;align=center;verticalAlign=middle;resizable=0;points=[];autosize=1;strokeColor=none;fillColor=none;" vertex="1" parent="1">
          <mxGeometry x="240" y="180" width="30" height="30" as="geometry" />
        </mxCell>
        <mxCell id="wuviF0q1Gh6CfxU_NPEG-55" value="" style="endArrow=classic;html=1;rounded=0;exitX=0;exitY=0;exitDx=0;exitDy=0;entryX=1;entryY=0;entryDx=0;entryDy=0;" edge="1" parent="1" source="wuviF0q1Gh6CfxU_NPEG-8" target="wuviF0q1Gh6CfxU_NPEG-10">
          <mxGeometry width="50" height="50" relative="1" as="geometry">
            <mxPoint x="400" y="390" as="sourcePoint" />
            <mxPoint x="450" y="340" as="targetPoint" />
          </mxGeometry>
        </mxCell>
        <mxCell id="wuviF0q1Gh6CfxU_NPEG-56" value="" style="endArrow=classic;html=1;rounded=0;exitX=0.022;exitY=0.7;exitDx=0;exitDy=0;exitPerimeter=0;entryX=0.689;entryY=0.033;entryDx=0;entryDy=0;entryPerimeter=0;" edge="1" parent="1" source="wuviF0q1Gh6CfxU_NPEG-2" target="wuviF0q1Gh6CfxU_NPEG-8">
          <mxGeometry width="50" height="50" relative="1" as="geometry">
            <mxPoint x="400" y="390" as="sourcePoint" />
            <mxPoint x="450" y="340" as="targetPoint" />
          </mxGeometry>
        </mxCell>
      </root>
    </mxGraphModel>
  </diagram>
</mxfile>
